<svg width="21" height="21" viewBox="0 0 21 21" fill="none" xmlns="http://www.w3.org/2000/svg">
<mask id="mask0_241_2913" style="mask-type:alpha" maskUnits="userSpaceOnUse" x="0" y="0" width="21" height="21">
<rect x="0.5" y="0.5" width="20" height="20" fill="#D9D9D9"/>
</mask>
<g mask="url(#mask0_241_2913)">
<path d="M9.4375 13.5L14.3958 8.5625L13.3333 7.5L9.4375 11.375L7.66667 9.625L6.60417 10.6875L9.4375 13.5ZM10.5 18.5C9.40278 18.5 8.36806 18.2917 7.39583 17.875C6.42361 17.4583 5.57292 16.8854 4.84375 16.1562C4.11458 15.4271 3.54167 14.5764 3.125 13.6042C2.70833 12.6319 2.5 11.5972 2.5 10.5C2.5 9.38889 2.70833 8.35069 3.125 7.38542C3.54167 6.42014 4.11458 5.57292 4.84375 4.84375C5.57292 4.11458 6.42361 3.54167 7.39583 3.125C8.36806 2.70833 9.40278 2.5 10.5 2.5C11.6111 2.5 12.6493 2.70833 13.6146 3.125C14.5799 3.54167 15.4271 4.11458 16.1562 4.84375C16.8854 5.57292 17.4583 6.42014 17.875 7.38542C18.2917 8.35069 18.5 9.38889 18.5 10.5C18.5 11.5972 18.2917 12.6319 17.875 13.6042C17.4583 14.5764 16.8854 15.4271 16.1562 16.1562C15.4271 16.8854 14.5799 17.4583 13.6146 17.875C12.6493 18.2917 11.6111 18.5 10.5 18.5Z" fill="white"/>
</g>
</svg>
