<svg width="20" height="16" viewBox="0 0 20 16" fill="none" xmlns="http://www.w3.org/2000/svg">
<path d="M16.9569 1.65403C19.2028 4.98875 20.3257 8.7318 19.9173 13.0533C19.9173 13.0533 19.9173 13.0873 19.8833 13.0873C18.3861 14.2103 16.6847 15.061 14.8812 15.6054C14.8472 15.6394 14.8472 15.6054 14.8132 15.6054C14.4389 15.061 14.0986 14.5165 13.7924 13.938C13.7924 13.904 13.7924 13.904 13.7924 13.87L13.8264 13.836C14.3708 13.6318 14.8812 13.3936 15.3917 13.0873C15.3917 13.0873 15.4257 13.0873 15.4257 13.0533C15.4257 13.0193 15.4257 13.0193 15.3917 12.9853C15.2896 12.9172 15.1875 12.8491 15.0854 12.7471C15.0514 12.7471 15.0514 12.7471 15.0173 12.7471C11.7847 14.2443 8.24584 14.2443 4.97917 12.7471C4.94515 12.7471 4.91112 12.7471 4.91112 12.7471C4.80904 12.8491 4.70695 12.9172 4.60487 12.9853C4.57084 13.0193 4.57084 13.0193 4.57084 13.0533C4.57084 13.0873 4.57084 13.0873 4.60487 13.0873C5.08126 13.3936 5.6257 13.6318 6.17014 13.836C6.17014 13.836 6.17014 13.87 6.20417 13.87C6.20417 13.904 6.20417 13.904 6.20417 13.938C5.89792 14.5165 5.55765 15.061 5.18334 15.6054C5.14931 15.6054 5.11529 15.6394 5.11529 15.6054C3.31182 15.061 1.61043 14.2103 0.113212 13.0873C0.0791843 13.0873 0.0791843 13.0533 0.0791843 13.0533C-0.261093 9.31027 0.453489 5.53319 3.0396 1.65403C3.0396 1.65403 3.0396 1.65403 3.07362 1.65403C4.36668 1.04153 5.72778 0.6332 7.12292 0.395006C7.15695 0.360979 7.19098 0.395006 7.19098 0.395006C7.39514 0.735283 7.56528 1.10959 7.70139 1.44987C9.23264 1.21167 10.7639 1.21167 12.2951 1.44987C12.4312 1.10959 12.6014 0.735283 12.8055 0.395006C12.8055 0.395006 12.8396 0.360979 12.8736 0.395006C14.2687 0.6332 15.6298 1.04153 16.9229 1.65403C16.9569 1.65403 16.9569 1.65403 16.9569 1.65403ZM6.68056 10.7735C7.66736 10.7735 8.48403 9.85471 8.48403 8.76582C8.48403 7.64291 7.70139 6.75819 6.68056 6.75819C5.69376 6.75819 4.87709 7.64291 4.87709 8.76582C4.87709 9.85471 5.69376 10.7735 6.68056 10.7735ZM13.316 10.7735C14.3368 10.7735 15.1194 9.85471 15.1194 8.76582C15.1535 7.64291 14.3368 6.75819 13.316 6.75819C12.3292 6.75819 11.5465 7.64291 11.5465 8.76582C11.5465 9.85471 12.3292 10.7735 13.316 10.7735Z" fill="white"/>
</svg>
