<svg width="20" height="18" viewBox="0 0 20 18" fill="none" xmlns="http://www.w3.org/2000/svg">
<path d="M17.9492 4.91797C17.9492 5.11328 17.9492 5.26953 17.9492 5.46484C17.9492 10.8945 13.8477 17.1055 6.30859 17.1055C3.96484 17.1055 1.81641 16.4414 0.0195312 15.2695C0.332031 15.3086 0.644531 15.3477 0.996094 15.3477C2.91016 15.3477 4.66797 14.6836 6.07422 13.5898C4.27734 13.5508 2.75391 12.3789 2.24609 10.7383C2.51953 10.7773 2.75391 10.8164 3.02734 10.8164C3.37891 10.8164 3.76953 10.7383 4.08203 10.6602C2.20703 10.2695 0.800781 8.62891 0.800781 6.63672V6.59766C1.34766 6.91016 2.01172 7.06641 2.67578 7.10547C1.54297 6.36328 0.839844 5.11328 0.839844 3.70703C0.839844 2.92578 1.03516 2.22266 1.38672 1.63672C3.41797 4.09766 6.46484 5.73828 9.86328 5.93359C9.78516 5.62109 9.74609 5.30859 9.74609 4.99609C9.74609 2.73047 11.582 0.894531 13.8477 0.894531C15.0195 0.894531 16.0742 1.36328 16.8555 2.18359C17.7539 1.98828 18.6523 1.63672 19.4336 1.16797C19.1211 2.14453 18.4961 2.92578 17.6367 3.43359C18.457 3.35547 19.2773 3.12109 19.9805 2.80859C19.4336 3.62891 18.7305 4.33203 17.9492 4.91797Z" fill="white"/>
</svg>
