<svg width="20" height="16" viewBox="0 0 20 16" fill="none" xmlns="http://www.w3.org/2000/svg">
<path d="M19.5612 3.21033C20 4.74598 20 8.03665 20 8.03665C20 8.03665 20 11.2908 19.5612 12.863C19.3419 13.7405 18.6472 14.3986 17.8062 14.618C16.234 15.0202 10.0183 15.0202 10.0183 15.0202C10.0183 15.0202 3.766 15.0202 2.19378 14.618C1.35283 14.3986 0.658135 13.7405 0.438757 12.863C0 11.2908 0 8.03665 0 8.03665C0 8.03665 0 4.74598 0.438757 3.21033C0.658135 2.33281 1.35283 1.63812 2.19378 1.41874C3.766 0.97998 10.0183 0.97998 10.0183 0.97998C10.0183 0.97998 16.234 0.97998 17.8062 1.41874C18.6472 1.63812 19.3419 2.33281 19.5612 3.21033ZM7.97075 10.9983L13.1627 8.03665L7.97075 5.07504V10.9983Z" fill="white"/>
</svg>
